<svg version="1.2" baseProfile="tiny-ps" xmlns="http://www.w3.org/2000/svg" viewBox="0 0 450 465" width="450" height="465">
	<title>border</title>
	<style>
		tspan { white-space:pre }
	</style>
	<path fill="#ffcba0" fill-rule="evenodd" d="M0.18 0.08L29.21 0.08L29.2 0.6C29.19 0.88 29.19 3.87 29.21 13.33L35.57 13.33C39.06 13.33 42.04 13.36 42.46 13.45L42.5 26.62L53.13 26.66L53.13 13.41C53.13 1.71 53.15 0.16 53.26 0.12C53.32 0.1 246.98 -0.77 300.12 -0.77C353.26 -0.77 396.8 -0.75 396.86 -0.72C396.97 -0.69 396.99 0.86 396.99 25.81L407.62 25.77L407.66 12.6L407.93 12.54C408.08 12.51 411.06 12.48 420.91 12.48L420.92 6.37C420.93 3.02 420.93 0.04 420.91 -0.77L449.95 -0.77L450 0C450.03 0.42 450.03 6.97 449.99 28.34L449.62 28.32C449.42 28.31 449.19 28.3 449.13 28.29C449.06 28.29 446.24 28.29 436.71 28.29L436.71 41.54L436.19 41.59C435.91 41.62 435.55 41.63 435.39 41.62C435.23 41.61 432.48 41.6 423.47 41.62L423.47 52.3L449.91 52.3L449.97 52.82C450.01 53.1 450.08 258.51 450.08 312.58C450.08 366.66 450.06 411.13 449.96 411.93L423.52 411.93L423.52 422.61L429.33 422.62C432.53 422.63 435.28 422.63 435.43 422.62C435.59 422.6 435.96 422.62 436.76 422.69L436.76 435.94L442.9 435.95C446.28 435.95 449.1 435.95 449.17 435.94C449.24 435.94 449.46 435.92 450.04 435.9L450.07 449.68C450.08 457.27 450.07 463.81 450 465L420.95 465L420.97 464.48C420.97 464.2 420.97 461.22 420.95 451.75L414.6 451.75C411.11 451.76 408.13 451.73 407.71 451.63L407.67 438.47L397.03 438.42L397.03 451.67C397.03 463.37 397.02 464.92 396.91 464.96C396.84 464.98 353.31 465 300.17 465C247.02 465 53.2 465.75 53.14 465.72C53.03 465.69 53.01 464.14 53.01 439.19L42.38 439.23L42.34 452.4L42.07 452.46C41.92 452.49 38.94 452.52 29.09 452.52L29.08 458.63C29.07 461.98 29.07 464.96 29.09 465.77L0.05 465.77L0 465C-0.03 464.58 -0.03 458.03 0.01 436.66L0.38 436.68C0.58 436.69 0.81 436.7 0.87 436.71C0.94 436.71 3.76 436.71 13.29 436.71L13.29 423.46L13.81 423.41C14.09 423.38 14.45 423.37 14.61 423.38C14.77 423.39 17.52 423.4 26.53 423.38L26.53 412.7L0.09 412.7L0.03 412.18C-0.01 411.9 -0.04 367.42 -0.04 313.35C-0.04 259.28 0.11 53.95 0.21 53.15L26.65 53.15L26.65 42.47L20.83 42.46C17.64 42.45 14.89 42.46 14.73 42.47C14.57 42.48 14.21 42.47 13.41 42.39L13.41 29.14L7.26 29.14C3.88 29.14 1.06 29.14 0.99 29.14C0.92 29.15 0.7 29.16 0.12 29.18L0.1 15.4C0.08 7.82 0.1 1.27 0.13 0.85L0.18 0.08ZM2.73 26.66L13.41 26.66C13.41 16.42 13.43 13.43 13.46 13.41C13.48 13.39 16.46 13.36 20.08 13.35L26.65 13.33L26.65 2.65L2.73 2.65L2.73 26.66ZM55.74 2.75C55.71 2.81 55.7 5.2 55.72 8.07L55.74 13.29L79.7 13.33L79.7 2.65C58.24 2.65 55.77 2.67 55.74 2.75ZM82.26 13.33C128.22 13.33 132.38 13.35 132.6 13.44C132.75 13.5 132.97 13.66 133.1 13.79C133.23 13.93 133.37 14.16 133.41 14.32C133.46 14.5 133.46 14.73 133.41 14.92C133.36 15.09 133.26 15.31 133.18 15.41C133.1 15.5 132.88 15.65 132.68 15.74C132.34 15.89 131.69 15.9 107.3 15.9L82.26 15.9C82.23 24.59 82.24 27.21 82.27 27.32C82.3 27.43 82.29 27.71 82.24 27.94C82.17 28.25 82.18 28.43 82.25 28.62C82.32 28.83 82.32 28.93 82.24 29.07C82.15 29.23 82.09 29.24 81.81 29.19C81.62 29.16 81.36 29.14 81.23 29.14C81.09 29.15 78.28 29.16 74.98 29.17L68.98 29.18C68.95 59.98 68.92 68.93 68.91 68.94C68.89 68.96 59.96 68.96 49.05 68.96L29.21 68.96C29.2 78.49 29.19 81.48 29.18 81.74L29.17 82.22L15.97 82.21C15.97 129.76 15.96 132.55 15.85 132.92C15.78 133.15 15.64 133.41 15.54 133.51C15.43 133.6 15.27 133.72 15.17 133.78C15.06 133.83 14.83 133.87 14.65 133.87C14.47 133.87 14.24 133.83 14.15 133.79C14.06 133.74 13.89 133.61 13.78 133.5C13.67 133.39 13.54 133.2 13.49 133.09C13.44 132.95 13.41 124.24 13.41 107.54L13.41 82.21L2.73 82.21C2.7 136.68 2.58 329.16 2.59 348.49L2.61 383.64L13.29 383.64C13.29 341.61 13.32 332.9 13.37 332.76C13.42 332.65 13.55 332.46 13.66 332.35C13.77 332.24 13.94 332.1 14.03 332.06C14.12 332.01 14.35 331.98 14.53 331.98C14.71 331.98 14.94 332.02 15.05 332.07C15.15 332.12 15.32 332.24 15.42 332.34C15.52 332.44 15.66 332.7 15.73 332.93C15.84 333.3 15.86 336.09 15.85 358.49L15.85 383.64L29.05 383.63C29.07 384.37 29.08 387.36 29.08 390.74L29.09 396.88C59.85 396.89 68.79 396.9 68.8 396.91C68.81 396.92 68.83 405.87 68.84 416.8L68.86 436.66C78.16 436.69 80.97 436.7 81.11 436.71C81.25 436.71 81.51 436.69 81.69 436.66C81.97 436.61 82.03 436.62 82.12 436.78C82.2 436.92 82.2 437.01 82.13 437.22C82.06 437.42 82.06 437.6 82.12 437.91C82.17 438.13 82.18 438.41 82.15 438.53C82.13 438.64 82.11 441.26 82.12 444.34L82.14 449.95C131.57 449.95 132.22 449.96 132.56 450.11C132.76 450.2 132.98 450.34 133.06 450.44C133.14 450.54 133.24 450.75 133.29 450.93C133.34 451.12 133.34 451.34 133.29 451.53C133.25 451.69 133.11 451.92 132.98 452.05C132.85 452.19 132.63 452.34 132.48 452.41C132.26 452.5 128.1 452.52 107.18 452.52L82.14 452.52L82.14 463.2L367.9 462.43L367.9 451.75C321.95 451.75 317.79 451.74 317.57 451.64C317.42 451.58 317.19 451.42 317.06 451.29C316.94 451.16 316.8 450.92 316.76 450.76C316.71 450.58 316.71 450.35 316.76 450.16C316.8 449.99 316.91 449.77 316.99 449.67C317.07 449.58 317.29 449.43 317.48 449.34C317.83 449.19 318.48 449.19 342.87 449.19L367.9 449.19C367.94 440.49 367.92 437.88 367.89 437.76C367.86 437.65 367.88 437.37 367.93 437.14C367.99 436.84 367.99 436.66 367.92 436.46C367.84 436.25 367.84 436.15 367.92 436.01C368.01 435.86 368.07 435.84 368.36 435.89C368.54 435.92 368.8 435.95 368.94 435.94C369.07 435.94 371.89 435.93 375.19 435.92L381.19 435.9C381.22 405.1 381.24 396.15 381.25 396.14C381.26 396.13 390.2 396.12 401.11 396.12L420.95 396.12C420.97 386.59 420.98 383.61 420.98 383.34L420.99 382.86L434.19 382.87C434.19 335.32 434.2 332.53 434.32 332.16C434.39 331.94 434.53 331.67 434.63 331.57C434.73 331.48 434.9 331.36 435 331.31C435.1 331.25 435.34 331.21 435.52 331.21C435.7 331.21 435.92 331.25 436.01 331.29C436.1 331.34 436.27 331.47 436.39 331.58C436.5 331.7 436.63 331.88 436.68 332C436.73 332.13 436.76 340.84 436.76 357.54L436.76 382.87L447.43 382.87C447.47 328.4 447.42 135.84 447.41 116.51L447.39 81.36L436.71 81.36C436.71 123.39 436.68 132.1 436.63 132.24C436.58 132.35 436.45 132.54 436.34 132.65C436.23 132.76 436.06 132.9 435.97 132.94C435.88 132.99 435.65 133.02 435.47 133.02C435.29 133.02 435.06 132.98 434.95 132.93C434.85 132.88 434.68 132.76 434.58 132.66C434.48 132.56 434.34 132.3 434.27 132.07C434.16 131.7 434.14 128.91 434.15 106.51L434.15 81.36L420.95 81.37C420.93 80.63 420.92 77.64 420.92 74.26L420.91 68.12C390.15 68.11 381.21 68.1 381.2 68.09C381.19 68.08 381.17 59.13 381.16 48.2L381.14 28.34C371.84 28.31 369.03 28.3 368.89 28.29C368.75 28.29 368.49 28.31 368.31 28.34C368.03 28.39 367.97 28.38 367.88 28.22C367.8 28.08 367.8 27.99 367.87 27.78C367.94 27.58 367.94 27.4 367.88 27.09C367.83 26.87 367.82 26.59 367.85 26.47C367.87 26.36 367.89 23.74 367.88 20.66L367.86 15.05C318.43 15.05 317.78 15.04 317.44 14.89C317.24 14.8 317.02 14.66 316.94 14.56C316.86 14.46 316.76 14.25 316.71 14.07C316.66 13.88 316.66 13.66 316.71 13.47C316.75 13.31 316.89 13.08 317.02 12.95C317.15 12.81 317.37 12.66 317.52 12.59C317.74 12.5 321.9 12.48 342.82 12.48L367.86 12.48L367.86 1.8L82.26 2.65L82.26 13.33ZM370.42 12.48L394.38 12.44L394.38 1.84L370.42 1.8L370.42 12.48ZM423.47 12.48C433.66 12.51 436.64 12.54 436.66 12.56C436.69 12.59 436.71 15.58 436.71 19.21L436.71 25.81L447.39 25.81L447.39 1.8L423.47 1.8L423.47 12.48ZM15.97 26.66L26.65 26.66L26.65 15.9L15.97 15.9L15.97 26.66ZM29.21 26.66L39.89 26.66L39.89 15.9L29.21 15.9L29.21 26.66ZM55.74 15.95C55.7 15.98 55.68 18.36 55.68 21.23C55.69 24.1 55.73 26.5 55.76 26.55C55.81 26.63 56.98 26.65 61.12 26.64L66.41 26.62L66.45 15.9C58.2 15.9 55.78 15.92 55.74 15.95ZM68.98 15.95C68.94 15.98 68.92 18.35 68.92 21.21C68.93 24.07 68.96 26.47 68.98 26.53C69.02 26.64 69.69 26.66 74.36 26.66L79.7 26.66L79.66 15.94C71.44 15.9 69.02 15.92 68.98 15.95ZM370.46 15.1C370.43 15.13 370.4 17.55 370.41 20.48L370.42 25.81L381.1 25.81C381.17 25.52 381.17 23.11 381.16 20.26L381.14 15.09C372.92 15.06 370.5 15.07 370.46 15.1ZM383.71 25.77L394.34 25.81C394.41 25.52 394.42 23.11 394.4 20.26L394.38 15.09L383.66 15.05L383.71 25.77ZM410.23 25.81L420.91 25.81L420.91 15.05L410.23 15.05L410.23 25.81ZM423.47 25.81L434.15 25.81L434.15 15.05L423.47 15.05L423.47 25.81ZM15.97 39.9L26.65 39.9L26.65 29.23C24.44 29.22 22.04 29.2 19.9 29.17L16 29.12L15.97 39.9ZM29.21 39.9L39.89 39.9L39.89 29.14L29.21 29.14L29.21 39.9ZM42.49 29.2C42.46 29.23 42.43 32.2 42.44 35.8C42.45 39.4 42.43 42.37 42.41 42.39C42.38 42.41 39.4 42.44 35.79 42.45L29.21 42.47L29.21 53.15L53.13 53.15L53.13 29.14C44.94 29.14 42.53 29.17 42.49 29.2ZM56.63 29.2L55.7 29.23L55.7 53.15L66.46 53.15L66.41 29.18C59.55 29.18 57.14 29.19 56.63 29.2ZM383.71 28.35C383.67 28.38 383.64 33.78 383.65 40.35L383.66 52.3L394.42 52.3L394.42 28.42C392.27 28.32 389.88 28.29 387.71 28.29C385.55 28.29 383.74 28.32 383.71 28.35ZM396.99 52.3L420.91 52.3L420.91 41.62C410.72 41.59 407.74 41.56 407.71 41.54C407.68 41.52 407.65 38.54 407.64 34.92L407.62 28.34L396.99 28.29L396.99 52.3ZM410.23 39.06L420.91 39.06L420.91 28.29L410.23 28.29L410.23 39.06ZM426.22 28.35L423.47 28.38L423.47 39.06L434.15 39.06L434.15 28.29C430.14 28.32 427.74 28.34 426.22 28.35ZM2.73 79.73L13.41 79.73L13.41 55.72L2.73 55.72L2.73 79.73ZM15.97 66.4L26.65 66.4L26.65 55.72L15.97 55.72L15.97 66.4ZM29.21 66.4L53.13 66.4L53.13 55.72L29.21 55.72L29.21 66.4ZM55.74 55.77C55.7 55.8 55.68 58.21 55.68 61.11L55.7 66.4L66.46 66.4L66.41 55.76C58.19 55.73 55.78 55.74 55.74 55.77ZM383.71 54.92C383.67 54.95 383.64 57.36 383.65 60.26L383.66 65.55L394.42 65.55L394.38 54.91C386.16 54.88 383.74 54.89 383.71 54.92ZM396.99 65.55L420.91 65.55L420.91 54.87L396.99 54.87L396.99 65.55ZM423.47 65.55L434.15 65.55L434.15 54.87L423.47 54.87L423.47 65.55ZM436.71 78.88L447.39 78.88L447.39 54.87L436.71 54.87L436.71 78.88ZM15.97 79.73L26.65 79.73L26.65 68.96L15.97 68.96L15.97 79.73ZM423.47 78.88L434.15 78.88L434.15 68.12L423.47 68.12L423.47 78.88ZM2.61 410.13L13.29 410.13L13.29 386.12L2.61 386.12L2.61 410.13ZM15.85 396.88L26.53 396.88L26.53 386.12L15.85 386.12L15.85 396.88ZM423.52 396.12L434.19 396.12L434.19 385.36L423.52 385.36L423.52 396.12ZM436.76 409.36L447.43 409.36L447.43 385.36L436.76 385.36L436.76 409.36ZM15.85 410.13L26.53 410.13L26.53 399.45L15.85 399.45L15.85 410.13ZM29.09 410.13L53.01 410.13L53.01 399.45L29.09 399.45L29.09 410.13ZM55.62 410.09L66.29 410.09L66.33 399.45L55.58 399.45L55.62 410.09ZM383.75 409.32L394.43 409.32L394.47 398.68L383.71 398.68L383.75 409.32ZM397.03 409.36L420.95 409.36L420.95 398.68L397.03 398.68L397.03 409.36ZM423.52 409.36L434.19 409.36L434.19 398.68L423.52 398.68L423.52 409.36ZM29.09 423.38C39.28 423.41 42.26 423.44 42.29 423.46C42.32 423.48 42.35 426.46 42.36 430.08L42.38 436.66L53.01 436.71L53.01 412.7L29.09 412.7L29.09 423.38ZM55.58 436.62C58.43 436.7 60.84 436.71 62.78 436.69L66.29 436.66L66.34 412.7L55.58 412.7L55.58 436.62ZM383.75 435.9C389.2 435.94 391.61 435.93 392.63 435.9L394.47 435.86L394.47 411.93L383.71 411.93L383.75 435.9ZM397.03 435.94L407.67 435.9C407.7 425.7 407.73 422.72 407.76 422.69C407.78 422.67 410.76 422.64 414.38 422.63L420.95 422.61L420.95 411.93L397.03 411.93L397.03 435.94ZM15.85 436.75C21.91 436.65 24.32 436.62 25.1 436.62L26.53 436.62L26.53 425.94L15.85 425.94L15.85 436.75ZM29.09 436.71L39.77 436.71L39.77 425.94L29.09 425.94L29.09 436.71ZM410.28 435.94L420.95 435.94L420.95 425.18L410.28 425.18L410.28 435.94ZM423.52 435.86C425.73 435.86 428.13 435.89 430.28 435.92L434.19 435.98L434.19 425.18L423.52 425.18L423.52 435.86ZM2.61 463.2L26.53 463.2L26.53 452.52C16.34 452.49 13.36 452.46 13.34 452.44C13.31 452.41 13.29 449.42 13.29 445.79L13.29 439.19L2.61 439.19L2.61 463.2ZM15.85 449.95L26.53 449.95L26.53 439.19L15.85 439.19L15.85 449.95ZM29.09 449.95L39.77 449.95L39.77 439.19L29.09 439.19L29.09 449.95ZM55.62 439.38C55.59 439.48 55.58 441.89 55.6 444.74L55.62 449.91L66.34 449.95L66.29 439.23L55.66 439.19L55.62 439.38ZM68.86 439.38C68.83 439.48 68.83 441.89 68.84 444.74L68.86 449.91L79.54 449.91L79.58 439.19L68.9 439.19L68.86 439.38ZM370.51 449.15L381.19 449.15C381.22 441.13 381.21 438.71 381.19 438.61L381.14 438.42L370.47 438.42L370.51 449.15ZM383.75 438.48C383.71 438.51 383.69 440.93 383.7 443.86L383.71 449.19L394.43 449.15C394.46 441.13 394.45 438.71 394.43 438.61L394.39 438.42C386.2 438.42 383.79 438.45 383.75 438.48ZM410.28 449.19L420.95 449.19L420.95 438.42L410.28 438.42L410.28 449.19ZM423.52 449.19L434.19 449.19L434.19 438.42L423.52 438.42L423.52 449.19ZM436.76 445.03C436.76 448.66 436.73 451.65 436.71 451.67C436.68 451.69 433.7 451.72 430.09 451.73L423.52 451.75L423.52 462.43L447.43 462.43L447.43 438.42L436.76 438.42L436.76 445.03ZM55.62 452.62C55.59 452.68 55.59 455.07 55.6 457.94L55.62 463.16L79.58 463.2L79.58 452.52C58.12 452.52 55.65 452.54 55.62 452.62ZM370.47 462.43L394.43 462.39L394.43 451.79L370.47 451.75L370.47 462.43Z" />
</svg>