<svg version="1.2" baseProfile="tiny-ps" xmlns="http://www.w3.org/2000/svg" viewBox="0 0 120 120" width="120" height="120">
	<title>taipei-metro-logo</title>
	<style>
		tspan { white-space:pre }
	</style>
	<path fill="#731e1e" d="M62.2 13.08C66.51 13.12 70.94 13.26 72.81 13.42C74.57 13.56 76.62 13.77 77.38 13.88C78.13 13.98 79.49 14.2 80.4 14.36C81.3 14.52 82.7 14.81 83.51 15.01C84.31 15.21 85.75 15.65 86.71 15.98C87.66 16.31 89.06 16.88 89.82 17.24C90.57 17.6 91.73 18.24 92.38 18.67C93.03 19.09 94.19 20.06 94.95 20.82C95.71 21.58 96.67 22.78 97.09 23.49C97.51 24.19 98.05 25.3 98.3 25.96C98.54 26.61 98.9 27.85 99.08 28.7C99.41 30.18 99.42 31.61 99.42 56.96C99.42 78.77 99.38 83.87 99.17 84.77C99.04 85.37 98.69 86.49 98.4 87.24C98.12 88 97.54 89.15 97.11 89.8C96.69 90.46 95.96 91.4 94.61 92.82L94.54 97.76C94.48 102.56 94.46 102.73 94.02 103.69C93.75 104.28 93.24 104.97 92.75 105.39C92.23 105.84 91.54 106.21 90.92 106.39C90.13 106.61 89.19 106.66 86.62 106.61C83.36 106.54 83.31 106.53 82.33 105.99C81.74 105.66 81.11 105.12 80.77 104.65C80.47 104.22 80.12 103.6 80 103.28C79.87 102.93 79.78 101.51 79.76 96.75L40.24 96.75L40.23 99.73C40.22 101.51 40.13 102.93 40 103.28C39.88 103.6 39.53 104.22 39.23 104.65C38.89 105.12 38.26 105.66 37.67 105.99C36.69 106.53 36.64 106.54 33.38 106.61C30.81 106.66 29.87 106.61 29.08 106.39C28.46 106.21 27.77 105.84 27.25 105.39C26.76 104.97 26.25 104.28 25.98 103.69C25.54 102.73 25.52 102.56 25.39 92.82L24.52 91.91C24.04 91.4 23.31 90.46 22.89 89.8C22.46 89.15 21.88 88 21.6 87.24C21.31 86.49 20.96 85.37 20.83 84.77C20.62 83.87 20.58 78.77 20.58 56.96C20.58 31.61 20.59 30.18 20.92 28.7C21.1 27.85 21.46 26.61 21.7 25.96C21.95 25.3 22.49 24.19 22.91 23.49C23.33 22.78 24.29 21.58 25.05 20.82C25.81 20.06 26.97 19.09 27.62 18.67C28.27 18.24 29.43 17.6 30.18 17.24C30.94 16.88 32.34 16.31 33.29 15.98C34.25 15.65 35.56 15.24 36.22 15.07C36.87 14.9 38.27 14.61 39.33 14.42C40.38 14.22 42.2 13.94 43.35 13.8C44.51 13.65 46.81 13.45 48.46 13.36C50.11 13.26 52.21 13.14 53.13 13.1C54.04 13.05 58.12 13.05 62.2 13.08ZM30.09 60L89.18 60L89.26 35.4L30 35.4L30.09 60ZM36.58 72.27C36.03 72.36 35.13 72.65 34.57 72.92C34.02 73.19 33.13 73.84 32.61 74.38C32.08 74.91 31.43 75.82 31.16 76.4C30.89 76.98 30.61 77.95 30.53 78.55C30.45 79.16 30.47 80.1 30.56 80.65C30.65 81.21 30.96 82.15 31.25 82.76C31.53 83.36 32.17 84.26 32.67 84.75C33.16 85.24 33.94 85.82 34.39 86.05C34.84 86.27 35.62 86.56 36.13 86.69C36.67 86.83 37.56 86.9 38.32 86.85C39.22 86.79 39.96 86.6 40.79 86.21C41.45 85.91 42.38 85.3 42.87 84.85C43.42 84.35 43.99 83.56 44.38 82.76C44.87 81.78 45.04 81.15 45.13 80.11C45.21 79.02 45.16 78.47 44.86 77.45C44.63 76.7 44.19 75.79 43.78 75.24C43.39 74.72 42.83 74.1 42.53 73.84C42.23 73.59 41.65 73.22 41.25 73.02C40.85 72.82 40.23 72.57 39.88 72.46C39.52 72.36 38.87 72.24 38.41 72.19C37.96 72.15 37.14 72.18 36.58 72.27ZM81.13 72.24C80.63 72.31 79.72 72.59 79.12 72.87C78.51 73.14 77.77 73.58 77.47 73.83C77.17 74.09 76.61 74.72 76.22 75.24C75.81 75.79 75.37 76.7 75.14 77.45C74.84 78.47 74.79 79.02 74.87 80.11C74.96 81.15 75.13 81.78 75.62 82.76C76.01 83.56 76.58 84.35 77.13 84.85C77.62 85.3 78.55 85.91 79.21 86.21C80.04 86.6 80.78 86.79 81.68 86.85C82.44 86.9 83.33 86.83 83.87 86.69C84.38 86.56 85.16 86.27 85.61 86.05C86.06 85.82 86.84 85.24 87.33 84.75C87.83 84.26 88.47 83.36 88.75 82.76C89.04 82.15 89.35 81.21 89.44 80.65C89.53 80.1 89.55 79.16 89.47 78.55C89.39 77.95 89.12 77 88.86 76.45C88.61 75.89 88.12 75.11 87.77 74.71C87.42 74.31 86.73 73.71 86.24 73.37C85.74 73.04 84.92 72.66 84.42 72.52C83.92 72.38 83.18 72.23 82.78 72.19C82.37 72.15 81.63 72.17 81.13 72.24Z" />
</svg>