<svg version="1.2" baseProfile="tiny-ps" xmlns="http://www.w3.org/2000/svg" viewBox="0 0 200 218" width="200" height="218">
	<title>圖層 1</title>
	<style>
		tspan { white-space:pre }
	</style>
	<path fill="#ffcba0" fill-rule="evenodd" d="M87.92 0.71C90.57 0.93 94.24 1.64 96.07 2.28C99.35 3.43 99.44 3.43 103.02 2.28C105.02 1.64 108.82 0.93 111.48 0.71C114.14 0.48 118.63 0.48 121.45 0.7C124.27 0.92 128.35 1.54 130.51 2.09C132.67 2.64 137.43 4.54 141.09 6.32C144.74 8.1 149.91 11.17 152.57 13.15C155.23 15.13 159.85 19 162.84 21.75C165.83 24.5 169.7 28.43 171.43 30.48C173.16 32.53 175.92 36.8 177.55 39.97C179.18 43.13 181.26 47.63 182.17 49.96C183.08 52.29 184.59 57.19 185.53 60.86C186.47 64.52 187.52 69.56 187.88 72.06C188.23 74.56 188.81 80.28 189.17 84.78C189.53 89.27 190.06 103.99 190.34 117.48C190.8 139.71 190.99 142.8 192.37 150.48C193.2 155.14 194.85 162.09 196.02 165.92C197.18 169.75 198.47 174.93 198.88 177.43C199.44 180.9 199.45 183.04 198.92 186.51C198.53 189.06 197.73 191.72 197.1 192.57C196.47 193.4 195.03 194.71 193.9 195.49C192.25 196.62 191.34 196.83 189.27 196.55C186.79 196.21 186.69 196.26 186.12 198.17C185.8 199.25 184.71 201.29 183.71 202.71C182.7 204.13 181.06 205.69 180.06 206.19C179.06 206.69 177.16 207.1 175.83 207.1C174.5 207.1 172.94 206.84 172.36 206.52C171.51 206.05 170.56 206.64 167.52 209.55C165.2 211.76 162.05 213.98 159.37 215.28C156.96 216.45 154.24 217.4 153.32 217.4C152.29 217.4 150.86 216.65 149.55 215.43C147.55 213.57 147.36 213.03 146.2 206.19C145.52 202.19 144.09 196.34 143.03 193.18C141.96 190.02 140.34 186.41 139.43 185.16C138.11 183.35 137.48 182.95 136.4 183.23C135.66 183.43 132.73 184.21 129.91 184.98C127.08 185.75 121.51 186.88 117.52 187.49C112.56 188.25 106.93 188.6 99.7 188.6C92.46 188.6 86.83 188.25 81.87 187.49C77.89 186.88 72.31 185.75 69.49 184.98C66.66 184.21 63.74 183.43 62.99 183.23C61.91 182.95 61.29 183.35 59.97 185.16C59.06 186.41 57.44 190.02 56.37 193.18C55.3 196.34 53.88 202.19 53.2 206.19C52.04 213.03 51.84 213.57 49.85 215.43C48.53 216.65 47.11 217.4 46.07 217.4C45.16 217.4 42.44 216.45 40.03 215.28C37.34 213.98 34.19 211.76 31.87 209.55C28.83 206.64 27.89 206.05 27.04 206.52C26.46 206.84 24.89 207.1 23.56 207.1C22.24 207.1 20.33 206.69 19.34 206.19C18.34 205.69 16.7 204.13 15.69 202.71C14.68 201.29 13.59 199.25 13.27 198.17C12.71 196.26 12.6 196.21 10.12 196.55C8.06 196.83 7.15 196.62 5.49 195.49C4.36 194.71 2.93 193.4 2.32 192.57C1.71 191.73 0.91 189.42 0.54 187.42C0.17 185.42 0.03 182.01 0.22 179.85C0.41 177.69 1.67 172.1 3.02 167.44C4.37 162.77 6.16 155.14 7.01 150.48C8.42 142.75 8.6 139.84 9.06 117.48C9.34 103.99 9.86 89.27 10.22 84.78C10.58 80.28 11.17 74.56 11.52 72.06C11.87 69.56 12.93 64.52 13.87 60.86C14.8 57.19 16.31 52.29 17.22 49.96C18.13 47.63 20.21 43.13 21.84 39.97C23.54 36.66 26.56 32.15 28.93 29.37C31.2 26.7 35.48 22.46 38.43 19.93C41.39 17.4 45.57 14.04 47.73 12.45C49.89 10.86 54.65 8.1 58.31 6.32C61.96 4.54 66.72 2.64 68.88 2.09C71.04 1.54 75.12 0.92 77.95 0.7C80.77 0.48 85.26 0.48 87.92 0.71ZM98.52 24.37C98.16 26.12 97.64 30.14 97.35 33.31C97.06 36.47 96.95 41.1 97.1 43.6C97.3 46.83 97.15 48.44 96.58 49.19C96.13 49.77 94 50.64 91.84 51.12C89.68 51.6 84.86 52.56 81.12 53.25C77.38 53.94 72.21 55.3 69.64 56.29C67.06 57.27 62.92 59.4 60.42 61.02C57.93 62.63 54.86 65.17 53.6 66.65C52.34 68.13 50.53 71.38 49.57 73.88C48.62 76.38 47.26 80.74 46.55 83.57C45.84 86.4 44.69 90.49 44 92.65C43.3 94.81 42.05 97.95 41.23 99.61C40.4 101.28 38.87 103.72 37.84 105.04L35.95 107.44C35.61 130 35.81 137.54 36.26 141.09C36.69 144.48 37.61 148.22 38.48 150.18C39.3 152.01 41.13 155.14 42.55 157.14C43.98 159.14 46.48 162 48.13 163.5C49.77 165 53.28 167.36 55.92 168.76C58.56 170.15 63.58 172.24 67.07 173.4C70.56 174.56 76.13 176.01 79.46 176.62C84.18 177.48 88.59 177.72 99.7 177.72C110.8 177.72 115.21 177.48 119.94 176.62C123.26 176.01 128.84 174.56 132.33 173.4C135.82 172.24 140.83 170.15 143.47 168.76C146.12 167.36 149.62 165 151.27 163.5C152.91 162 155.42 159.14 156.84 157.14C158.27 155.14 160.1 152.01 160.92 150.18C161.79 148.21 162.7 144.49 163.13 141.09C163.57 137.57 163.77 129.93 163.65 121.39L163.44 107.43C160.52 103.72 159 101.28 158.17 99.61C157.34 97.95 156.09 94.81 155.4 92.65C154.7 90.49 153.55 86.4 152.85 83.57C152.14 80.74 150.78 76.38 149.82 73.88C148.86 71.38 147.05 68.13 145.79 66.65C144.53 65.17 141.47 62.63 138.97 61.02C136.48 59.4 132.33 57.27 129.76 56.29C127.18 55.3 122.02 53.94 118.28 53.25C114.54 52.56 109.71 51.6 107.55 51.12C105.39 50.64 103.26 49.77 102.82 49.19C102.24 48.44 102.09 46.83 102.29 43.6C102.45 41.1 102.34 36.47 102.05 33.31C101.76 30.14 101.29 26.12 101 24.37C100.72 22.63 100.19 21.19 99.83 21.19C99.46 21.19 98.87 22.63 98.52 24.37ZM67.98 86.22C70.34 86.35 73.14 86.91 74.32 87.5C75.48 88.08 77.19 89.27 78.11 90.15C79.28 91.26 79.78 92.34 79.77 93.71C79.76 94.86 79.25 96.18 78.55 96.89C77.88 97.56 76.54 98.1 75.53 98.1C74.53 98.1 72.7 97.55 71.45 96.89C70.2 96.22 68.37 95.67 67.37 95.66C66.37 95.65 64 96.47 62.08 97.48C60.17 98.49 58.07 99.31 57.4 99.31C56.74 99.31 55.51 98.63 54.68 97.8C53.68 96.79 53.18 95.63 53.19 94.32C53.21 92.82 53.79 91.8 55.61 90.08C56.93 88.83 59.3 87.4 60.88 86.9C62.69 86.33 65.3 86.08 67.98 86.22ZM132.33 86.04C133.82 86.01 136.47 86.39 138.22 86.89C140.21 87.47 142.28 88.65 143.79 90.08C145.61 91.8 146.19 92.82 146.2 94.32C146.22 95.61 145.72 96.8 144.74 97.8C143.92 98.63 142.7 99.31 142.02 99.31C141.34 99.31 139.22 98.49 137.31 97.48C135.4 96.47 133.02 95.65 132.02 95.66C131.03 95.67 129.19 96.22 127.95 96.89C126.7 97.55 124.86 98.1 123.87 98.1C122.86 98.1 121.52 97.56 120.85 96.89C120.14 96.18 119.63 94.86 119.62 93.71C119.62 92.33 120.12 91.26 121.29 90.15C122.21 89.28 123.64 88.21 124.47 87.77C125.3 87.34 126.8 86.79 127.79 86.55C128.79 86.31 130.83 86.08 132.33 86.04ZM67.82 108.42C68.41 108.41 70.01 108.87 71.39 109.45C72.77 110.04 74.39 111.2 74.98 112.03C75.57 112.86 76.49 114.9 77.03 116.57C77.56 118.23 78.16 122.73 78.36 126.56C78.56 130.63 78.42 135.66 78.01 138.67C77.63 141.5 76.84 144.76 76.27 145.9C75.7 147.04 74.55 148.48 73.72 149.1C72.89 149.71 71.12 150.45 69.79 150.74C68.42 151.04 66.46 151.03 65.26 150.73C64.09 150.43 62.36 149.44 61.4 148.52C60.44 147.6 59.12 145.62 58.46 144.12C57.8 142.62 57.09 139.77 56.5 134.18L51.96 133.49C49.47 133.11 46.82 132.48 46.07 132.1C45.32 131.72 44.3 130.79 43.8 130.04C43.3 129.29 42.89 127.79 42.9 126.71C42.9 125.3 43.4 124.3 44.69 123.17C46.4 121.66 46.68 121.61 56.8 122.32L56.78 120.35C56.77 119.27 57.16 117.43 57.65 116.27C58.13 115.1 59.3 113.25 60.23 112.15C61.17 111.05 63.02 109.77 64.35 109.3C65.68 108.83 67.24 108.44 67.82 108.42ZM131.12 108.41C131.62 108.41 133.11 108.7 134.44 109.08C135.85 109.47 137.71 110.67 138.89 111.95C140.01 113.16 141.31 115.1 141.78 116.27C142.25 117.43 142.62 119.27 142.6 122.32L147.58 121.95C152.33 121.59 152.66 121.65 154.53 123.16C156.02 124.36 156.5 125.22 156.5 126.71C156.5 127.79 156.09 129.29 155.59 130.04C155.09 130.79 154.07 131.72 153.32 132.1C152.58 132.48 149.92 133.11 142.9 134.18L142.52 137.79C142.31 139.77 141.6 142.62 140.94 144.12C140.28 145.62 138.95 147.6 137.99 148.52C137.04 149.44 135.17 150.43 133.84 150.73C132.47 151.03 130.5 151.03 129.31 150.74C128.14 150.45 126.51 149.71 125.68 149.1C124.85 148.48 123.7 147.04 123.13 145.9C122.55 144.76 121.77 141.5 121.38 138.67C120.97 135.66 120.83 130.63 121.04 126.56C121.24 122.73 121.78 118.37 122.24 116.87C122.7 115.37 123.6 113.35 124.23 112.38C124.86 111.4 126.47 110.12 127.79 109.51C129.12 108.91 130.62 108.42 131.12 108.41ZM86.96 147.75C87.82 147.74 89.61 148.53 90.94 149.49C92.27 150.46 94.71 151.86 99.4 153.96L102.72 152.6C104.55 151.86 107.13 150.46 108.46 149.49C109.79 148.53 111.56 147.75 112.39 147.76C113.22 147.77 114.52 148.39 115.27 149.13C116.06 149.9 116.64 151.2 116.63 152.15C116.62 153.1 115.88 154.65 114.88 155.78C113.92 156.86 111 158.84 108.38 160.17C104.28 162.25 103.08 162.59 99.7 162.59C96.31 162.59 95.11 162.25 91.02 160.17C88.4 158.84 85.48 156.86 84.52 155.78C83.56 154.7 82.73 153.08 82.66 152.18C82.59 151.16 83.08 150.04 83.97 149.16C84.76 148.39 86.1 147.75 86.96 147.75Z" />
</svg>