<svg version="1.2" baseProfile="tiny-ps" xmlns="http://www.w3.org/2000/svg" viewBox="0 0 100 85" width="100" height="85">
	<title>圖層 2 copy</title>
	<style>
		tspan { white-space:pre }
	</style>
	<path id="圖層 1" d="M26.97 0.47C29.28 0.45 32.02 0.72 33.55 1.12C35 1.5 37.57 2.53 39.25 3.42C41.02 4.35 43.44 6.15 44.96 7.67C46.4 9.11 48.08 11.23 48.68 12.38C49.29 13.52 49.88 14.46 50 14.46C50.12 14.46 50.71 13.52 51.32 12.38C51.92 11.23 53.6 9.11 55.04 7.67C56.56 6.15 58.98 4.35 60.75 3.42C62.43 2.53 65 1.5 66.45 1.12C67.89 0.74 70.71 0.43 72.7 0.44C74.69 0.44 77.35 0.66 78.62 0.93C79.88 1.2 82.11 1.96 83.55 2.62C85 3.27 87.46 4.78 89.01 5.96C90.57 7.14 92.72 9.29 93.79 10.73C94.85 12.18 96.32 14.64 97.03 16.21C97.75 17.78 98.6 20.54 98.93 22.35C99.26 24.15 99.54 27.6 99.55 30.01C99.57 33.22 99.3 35.51 98.54 38.56C97.94 40.94 96.64 44.4 95.48 46.66C94.37 48.83 92.21 52.08 90.67 53.89C89.14 55.7 86.91 57.98 85.72 58.97C84.53 59.96 81.97 61.85 80.04 63.19C78.11 64.53 73.57 67.47 69.96 69.74C66.34 72 61.7 75.13 59.65 76.69C57.6 78.24 54.59 80.75 50 85L47.04 82.26C45.41 80.75 42.4 78.24 40.35 76.69C38.3 75.13 33.66 72 30.04 69.74C26.43 67.47 21.89 64.53 19.96 63.19C18.03 61.85 15.47 59.96 14.28 58.97C13.09 57.98 10.86 55.7 9.33 53.89C7.79 52.08 5.63 48.83 4.52 46.66C3.36 44.4 2.06 40.94 1.46 38.56C0.7 35.51 0.43 33.22 0.45 30.01C0.46 27.6 0.74 24.15 1.07 22.35C1.4 20.54 2.25 17.78 2.97 16.21C3.68 14.64 5.15 12.18 6.21 10.73C7.28 9.29 9.43 7.14 10.99 5.96C12.54 4.78 14.9 3.31 16.23 2.7C17.55 2.09 19.63 1.34 20.83 1.05C22.04 0.75 24.8 0.49 26.97 0.47Z" />
</svg>