<svg version="1.2" baseProfile="tiny-ps" xmlns="http://www.w3.org/2000/svg" viewBox="0 0 300 305" width="300" height="305">
	<title>border</title>
	<style>
		tspan { white-space:pre }
	</style>
	<path fill="#ffcba0" fill-rule="evenodd" d="M0.18 0.08L29.21 0.08L29.2 0.6C29.19 0.88 29.19 3.87 29.21 13.33L35.57 13.33C39.06 13.33 42.04 13.36 42.46 13.45L42.5 26.62L53.13 26.66L53.13 13.41C53.13 1.71 53.15 0.16 53.26 0.12C53.32 0.1 96.86 0.08 150 0.08C203.14 0.08 246.68 0.1 246.74 0.12C246.85 0.16 246.87 1.71 246.87 26.66L257.5 26.62L257.54 13.45L257.81 13.39C257.96 13.36 260.94 13.33 270.79 13.33L270.8 7.22C270.81 3.87 270.81 0.88 270.79 0.08L299.83 0.08L299.88 0.85C299.91 1.27 299.92 7.82 299.88 29.18L299.5 29.17C299.3 29.16 299.08 29.15 299.01 29.14C298.94 29.14 296.12 29.14 286.59 29.14L286.59 42.39L286.08 42.44C285.79 42.47 285.43 42.48 285.27 42.47C285.11 42.46 282.36 42.45 273.35 42.47L273.35 53.15L299.79 53.15L299.86 53.67C299.89 53.95 299.92 98.43 299.92 152.5C299.92 206.57 299.89 251.05 299.79 251.85L273.35 251.85L273.35 262.53L279.17 262.54C282.36 262.55 285.11 262.54 285.27 262.53C285.43 262.52 285.79 262.53 286.59 262.61L286.59 275.86L292.74 275.86C296.12 275.86 298.94 275.86 299.01 275.86C299.08 275.85 299.3 275.84 299.88 275.82L299.9 289.6C299.92 297.18 299.91 303.73 299.83 304.92L270.79 304.92L270.8 304.4C270.81 304.12 270.81 301.13 270.79 291.67L264.43 291.67C260.94 291.67 257.96 291.64 257.54 291.55L257.5 278.38L246.87 278.34L246.87 291.59C246.87 303.29 246.85 304.84 246.74 304.88C246.68 304.9 203.14 304.92 150 304.92C96.86 304.92 53.32 304.9 53.26 304.88C53.15 304.84 53.13 303.29 53.13 278.34L42.5 278.38L42.46 291.55L42.19 291.61C42.04 291.64 39.06 291.67 29.21 291.67L29.2 297.78C29.19 301.13 29.19 304.12 29.21 304.92L0.17 304.92L0.12 304.15C0.09 303.73 0.08 297.18 0.12 275.82L0.5 275.83C0.7 275.84 0.92 275.85 0.99 275.86C1.06 275.86 3.88 275.86 13.41 275.86L13.41 262.61L13.92 262.56C14.21 262.53 14.57 262.52 14.73 262.53C14.89 262.54 17.64 262.55 26.65 262.53L26.65 251.85L0.21 251.85L0.14 251.33C0.11 251.05 0.08 206.57 0.08 152.5C0.08 98.43 0.11 53.95 0.21 53.15L26.65 53.15L26.65 42.47L20.83 42.46C17.64 42.45 14.89 42.46 14.73 42.47C14.57 42.48 14.21 42.47 13.41 42.39L13.41 29.14L7.26 29.14C3.88 29.14 1.06 29.14 0.99 29.14C0.92 29.15 0.7 29.16 0.12 29.18L0.1 15.4C0.08 7.82 0.1 1.27 0.13 0.85L0.18 0.08ZM2.73 26.66L13.41 26.66C13.41 16.42 13.43 13.43 13.46 13.41C13.48 13.39 16.46 13.36 20.08 13.35L26.65 13.33L26.65 2.65L2.73 2.65L2.73 26.66ZM55.74 2.75C55.71 2.81 55.7 5.2 55.72 8.07L55.74 13.29L79.7 13.33L79.7 2.65C58.24 2.65 55.77 2.67 55.74 2.75ZM82.26 13.33C128.22 13.33 132.38 13.35 132.6 13.44C132.75 13.5 132.97 13.66 133.1 13.79C133.23 13.93 133.37 14.16 133.41 14.32C133.46 14.5 133.46 14.73 133.41 14.92C133.36 15.09 133.26 15.31 133.18 15.41C133.1 15.5 132.88 15.65 132.68 15.74C132.34 15.89 131.69 15.9 107.3 15.9L82.26 15.9C82.23 24.59 82.24 27.21 82.27 27.32C82.3 27.43 82.29 27.71 82.24 27.94C82.17 28.25 82.18 28.43 82.25 28.62C82.32 28.83 82.32 28.93 82.24 29.07C82.15 29.23 82.09 29.24 81.81 29.19C81.62 29.16 81.36 29.14 81.23 29.14C81.09 29.15 78.28 29.16 74.98 29.17L68.98 29.18C68.95 59.98 68.92 68.93 68.91 68.94C68.89 68.96 59.96 68.96 49.05 68.96L29.21 68.96C29.2 78.49 29.19 81.48 29.18 81.74L29.17 82.22L15.97 82.21C15.97 129.76 15.96 132.55 15.85 132.92C15.78 133.15 15.64 133.41 15.54 133.51C15.43 133.6 15.27 133.72 15.17 133.78C15.06 133.83 14.83 133.87 14.65 133.87C14.47 133.87 14.24 133.83 14.15 133.79C14.06 133.74 13.89 133.61 13.78 133.5C13.67 133.39 13.54 133.2 13.49 133.09C13.44 132.95 13.41 124.24 13.41 107.54L13.41 82.21L2.73 82.21C2.7 136.68 2.7 168.32 2.71 187.64L2.73 222.79L13.41 222.79C13.41 180.76 13.44 172.05 13.49 171.91C13.54 171.8 13.67 171.61 13.78 171.5C13.89 171.39 14.06 171.26 14.15 171.21C14.24 171.17 14.47 171.13 14.65 171.13C14.83 171.13 15.06 171.17 15.17 171.22C15.27 171.28 15.43 171.4 15.54 171.49C15.64 171.59 15.78 171.85 15.85 172.08C15.96 172.45 15.97 175.24 15.97 197.64L15.97 222.79L29.17 222.78C29.19 223.52 29.2 226.51 29.2 229.89L29.21 236.04C59.97 236.04 68.91 236.05 68.92 236.06C68.93 236.07 68.95 245.02 68.96 255.95L68.98 275.82C78.28 275.84 81.09 275.85 81.23 275.86C81.36 275.86 81.62 275.84 81.81 275.81C82.09 275.76 82.15 275.77 82.24 275.93C82.32 276.07 82.32 276.17 82.25 276.38C82.18 276.57 82.17 276.75 82.24 277.06C82.29 277.29 82.3 277.57 82.27 277.68C82.24 277.79 82.23 280.41 82.24 283.5L82.26 289.1C131.69 289.1 132.34 289.11 132.68 289.26C132.88 289.35 133.1 289.5 133.18 289.59C133.26 289.69 133.36 289.91 133.41 290.08C133.46 290.27 133.46 290.5 133.41 290.68C133.37 290.84 133.23 291.07 133.1 291.21C132.97 291.34 132.75 291.5 132.6 291.56C132.38 291.65 128.22 291.67 107.3 291.67L82.26 291.67L82.26 302.35L217.74 302.35L217.74 291.67C171.78 291.67 167.62 291.65 167.4 291.56C167.25 291.5 167.03 291.34 166.9 291.21C166.77 291.07 166.63 290.84 166.59 290.68C166.54 290.5 166.54 290.27 166.59 290.08C166.64 289.91 166.74 289.69 166.82 289.59C166.9 289.5 167.12 289.35 167.32 289.26C167.66 289.11 168.31 289.1 192.7 289.1L217.74 289.1C217.77 280.41 217.76 277.79 217.73 277.68C217.7 277.57 217.71 277.29 217.76 277.06C217.83 276.75 217.82 276.57 217.75 276.38C217.68 276.17 217.68 276.07 217.76 275.93C217.85 275.77 217.91 275.76 218.19 275.81C218.38 275.84 218.64 275.86 218.77 275.86C218.91 275.85 221.72 275.84 225.02 275.83L231.02 275.82C231.05 245.02 231.07 236.07 231.09 236.06C231.1 236.04 240.04 236.04 250.95 236.04L270.79 236.04C270.8 226.51 270.81 223.52 270.82 223.26L270.83 222.78L284.03 222.79C284.03 175.24 284.04 172.45 284.15 172.08C284.22 171.85 284.36 171.59 284.46 171.49C284.57 171.4 284.73 171.28 284.83 171.22C284.94 171.17 285.17 171.13 285.35 171.13C285.53 171.13 285.76 171.17 285.85 171.21C285.94 171.26 286.11 171.39 286.22 171.5C286.33 171.61 286.46 171.8 286.51 171.91C286.56 172.05 286.59 180.76 286.59 197.46L286.59 222.79L297.27 222.79C297.3 168.32 297.3 136.68 297.29 117.36L297.27 82.21L286.59 82.21C286.59 124.24 286.56 132.95 286.51 133.09C286.46 133.2 286.33 133.39 286.22 133.5C286.11 133.61 285.94 133.74 285.85 133.79C285.76 133.83 285.53 133.87 285.35 133.87C285.17 133.87 284.94 133.83 284.83 133.78C284.73 133.72 284.57 133.6 284.46 133.51C284.36 133.41 284.22 133.15 284.15 132.92C284.04 132.55 284.03 129.76 284.03 107.36L284.03 82.21L270.83 82.22C270.81 81.48 270.8 78.49 270.8 75.11L270.79 68.96C240.03 68.96 231.09 68.95 231.08 68.94C231.07 68.93 231.05 59.98 231.04 49.05L231.02 29.18C221.72 29.16 218.91 29.15 218.77 29.14C218.64 29.14 218.38 29.16 218.19 29.19C217.91 29.24 217.85 29.23 217.76 29.07C217.68 28.93 217.68 28.83 217.75 28.62C217.82 28.43 217.83 28.25 217.76 27.94C217.71 27.71 217.7 27.43 217.73 27.32C217.76 27.21 217.77 24.59 217.76 21.5L217.74 15.9C168.31 15.9 167.66 15.89 167.32 15.74C167.12 15.65 166.9 15.5 166.82 15.41C166.74 15.31 166.64 15.09 166.59 14.92C166.54 14.73 166.54 14.5 166.59 14.32C166.63 14.16 166.77 13.93 166.9 13.79C167.03 13.66 167.25 13.5 167.4 13.44C167.62 13.35 171.78 13.33 192.7 13.33L217.74 13.33L217.74 2.65L82.26 2.65L82.26 13.33ZM220.3 13.33L244.26 13.29L244.26 2.69L220.3 2.65L220.3 13.33ZM273.35 13.33C283.54 13.36 286.52 13.39 286.54 13.41C286.57 13.43 286.59 16.42 286.59 20.06L286.59 26.66L297.27 26.66L297.27 2.65L273.35 2.65L273.35 13.33ZM15.97 26.66L26.65 26.66L26.65 15.9L15.97 15.9L15.97 26.66ZM29.21 26.66L39.89 26.66L39.89 15.9L29.21 15.9L29.21 26.66ZM55.74 15.95C55.7 15.98 55.68 18.36 55.68 21.23C55.69 24.1 55.73 26.5 55.76 26.55C55.81 26.63 56.98 26.65 61.12 26.64L66.41 26.62L66.45 15.9C58.2 15.9 55.78 15.92 55.74 15.95ZM68.98 15.95C68.94 15.98 68.92 18.35 68.92 21.21C68.93 24.07 68.96 26.47 68.98 26.53C69.02 26.64 69.69 26.66 74.36 26.66L79.7 26.66L79.66 15.94C71.44 15.9 69.02 15.92 68.98 15.95ZM220.35 15.95C220.31 15.98 220.28 18.4 220.29 21.33L220.3 26.66L230.98 26.66C231.05 26.37 231.06 23.96 231.04 21.11L231.02 15.94C222.8 15.9 220.38 15.92 220.35 15.95ZM233.59 26.62L244.22 26.66C244.29 26.37 244.3 23.96 244.28 21.11L244.26 15.94L233.54 15.89L233.59 26.62ZM260.11 26.66L270.79 26.66L270.79 15.9L260.11 15.9L260.11 26.66ZM273.35 26.66L284.03 26.66L284.03 15.9L273.35 15.9L273.35 26.66ZM15.97 39.9L26.65 39.9L26.65 29.23C24.44 29.22 22.04 29.2 19.9 29.17L16 29.12L15.97 39.9ZM29.21 39.9L39.89 39.9L39.89 29.14L29.21 29.14L29.21 39.9ZM42.49 29.2C42.46 29.23 42.43 32.2 42.44 35.8C42.45 39.4 42.43 42.37 42.41 42.39C42.38 42.41 39.4 42.44 35.79 42.45L29.21 42.47L29.21 53.15L53.13 53.15L53.13 29.14C44.94 29.14 42.53 29.17 42.49 29.2ZM56.63 29.2L55.7 29.23L55.7 53.15L66.46 53.15L66.41 29.18C59.55 29.18 57.14 29.19 56.63 29.2ZM233.59 29.2C233.55 29.23 233.52 34.63 233.53 41.2L233.54 53.15L244.3 53.15L244.3 29.27C242.15 29.17 239.76 29.14 237.59 29.14C235.43 29.14 233.62 29.17 233.59 29.2ZM246.87 53.15L270.79 53.15L270.79 42.47C260.6 42.44 257.62 42.41 257.59 42.39C257.57 42.37 257.53 39.39 257.52 35.77L257.5 29.18L246.87 29.14L246.87 53.15ZM260.11 39.9L270.79 39.9L270.79 29.14L260.11 29.14L260.11 39.9ZM276.1 29.2L273.35 29.23L273.35 39.9L284.03 39.9L284.03 29.14C280.02 29.17 277.62 29.19 276.1 29.2ZM2.73 79.73L13.41 79.73L13.41 55.72L2.73 55.72L2.73 79.73ZM15.97 66.4L26.65 66.4L26.65 55.72L15.97 55.72L15.97 66.4ZM29.21 66.4L53.13 66.4L53.13 55.72L29.21 55.72L29.21 66.4ZM55.74 55.77C55.7 55.8 55.68 58.21 55.68 61.11L55.7 66.4L66.46 66.4L66.41 55.76C58.19 55.73 55.78 55.74 55.74 55.77ZM233.59 55.77C233.55 55.8 233.52 58.21 233.53 61.11L233.54 66.4L244.3 66.4L244.26 55.76C236.04 55.73 233.63 55.74 233.59 55.77ZM246.87 66.4L270.79 66.4L270.79 55.72L246.87 55.72L246.87 66.4ZM273.35 66.4L284.03 66.4L284.03 55.72L273.35 55.72L273.35 66.4ZM286.59 79.73L297.27 79.73L297.27 55.72L286.59 55.72L286.59 79.73ZM15.97 79.73L26.65 79.73L26.65 68.96L15.97 68.96L15.97 79.73ZM273.35 79.73L284.03 79.73L284.03 68.96L273.35 68.96L273.35 79.73ZM2.73 249.28L13.41 249.28L13.41 225.27L2.73 225.27L2.73 249.28ZM15.97 236.04L26.65 236.04L26.65 225.27L15.97 225.27L15.97 236.04ZM273.35 236.04L284.03 236.04L284.03 225.27L273.35 225.27L273.35 236.04ZM286.59 249.28L297.27 249.28L297.27 225.27L286.59 225.27L286.59 249.28ZM15.97 249.28L26.65 249.28L26.65 238.6L15.97 238.6L15.97 249.28ZM29.21 249.28L53.13 249.28L53.13 238.6L29.21 238.6L29.21 249.28ZM55.74 249.24L66.41 249.24L66.45 238.6L55.7 238.6L55.74 249.24ZM233.59 249.24L244.26 249.24L244.3 238.6L233.54 238.6L233.59 249.24ZM246.87 249.28L270.79 249.28L270.79 238.6L246.87 238.6L246.87 249.28ZM273.35 249.28L284.03 249.28L284.03 238.6L273.35 238.6L273.35 249.28ZM29.21 262.53C39.4 262.56 42.38 262.59 42.41 262.61C42.43 262.63 42.47 265.61 42.48 269.23L42.5 275.82L53.13 275.86L53.13 251.85L29.21 251.85L29.21 262.53ZM55.7 275.77C58.55 275.85 60.96 275.86 62.9 275.84L66.41 275.82L66.45 251.85L55.7 251.85L55.7 275.77ZM233.59 275.82C239.04 275.86 241.45 275.85 242.46 275.82L244.3 275.77L244.3 251.85L233.54 251.85L233.59 275.82ZM246.87 275.86L257.5 275.82C257.53 265.61 257.57 262.63 257.59 262.61C257.62 262.59 260.6 262.56 264.21 262.55L270.79 262.53L270.79 251.85L246.87 251.85L246.87 275.86ZM15.97 275.9C22.03 275.8 24.44 275.78 25.22 275.78L26.65 275.77L26.65 265.1L15.97 265.1L15.97 275.9ZM29.21 275.86L39.89 275.86L39.89 265.1L29.21 265.1L29.21 275.86ZM260.11 275.86L270.79 275.86L270.79 265.1L260.11 265.1L260.11 275.86ZM273.35 275.77C275.56 275.78 277.97 275.8 280.12 275.84L284.03 275.9L284.03 265.1L273.35 265.1L273.35 275.77ZM2.73 302.35L26.65 302.35L26.65 291.67C16.46 291.64 13.48 291.61 13.46 291.59C13.43 291.57 13.41 288.58 13.41 284.94L13.4 278.34L2.73 278.34L2.73 302.35ZM15.97 289.1L26.65 289.1L26.65 278.34L15.97 278.34L15.97 289.1ZM29.21 289.1L39.89 289.1L39.89 278.34L29.21 278.34L29.21 289.1ZM55.74 278.53C55.71 278.63 55.7 281.04 55.72 283.89L55.74 289.06L66.46 289.1L66.41 278.38L55.78 278.34L55.74 278.53ZM68.98 278.53C68.95 278.63 68.94 281.04 68.96 283.89L68.98 289.06L79.66 289.06L79.69 278.34L69.02 278.34L68.98 278.53ZM220.34 289.06L231.02 289.06C231.06 281.04 231.05 278.63 231.02 278.53L230.98 278.34L220.3 278.34L220.34 289.06ZM233.59 278.4C233.55 278.43 233.52 280.85 233.53 283.78L233.54 289.1L244.26 289.06C244.3 281.04 244.29 278.63 244.26 278.53L244.22 278.34C236.03 278.34 233.62 278.37 233.59 278.4ZM260.11 289.1L270.79 289.1L270.79 278.34L260.11 278.34L260.11 289.1ZM273.35 289.1L284.03 289.1L284.03 278.34L273.35 278.34L273.35 289.1ZM286.59 284.94C286.59 288.58 286.57 291.57 286.54 291.59C286.52 291.61 283.54 291.64 279.92 291.65L273.35 291.67L273.35 302.35L297.27 302.35L297.27 278.34L286.59 278.34L286.59 284.94ZM55.74 291.77C55.71 291.83 55.7 294.22 55.72 297.09L55.74 302.31L79.7 302.35L79.7 291.67C58.24 291.67 55.77 291.69 55.74 291.77ZM220.3 302.35L244.26 302.31L244.26 291.71L220.3 291.67L220.3 302.35Z" />
</svg>