<svg version="1.2" baseProfile="tiny-ps" xmlns="http://www.w3.org/2000/svg" viewBox="0 0 200 204" width="200" height="204">
	<title>Layer 1</title>
	<style>
		tspan { white-space:pre }
	</style>
	<path fill="#ffcba0" fill-rule="evenodd" d="M83.13 0.27C87.59 0.46 92.08 1.15 97.19 2.43C101.67 3.56 106.95 5.43 115.94 9.83L122.19 9.21C127.26 8.71 129.8 8.79 135.63 9.64C139.58 10.22 144.35 11.3 146.23 12.03C148.11 12.77 150.56 14.21 151.67 15.24C152.88 16.35 153.71 17.73 153.73 18.66C153.75 19.51 153.34 20.84 152.82 21.61C151.9 22.97 152.01 23.1 156.41 26.03C158.9 27.69 163.02 30.84 165.56 33.02C168.1 35.21 171.52 38.69 173.15 40.74C174.79 42.79 177.26 46.57 178.65 49.13C180.04 51.7 182.21 56.46 183.47 59.71C184.73 62.96 186.3 67.71 186.96 70.28C187.62 72.85 188.45 77.6 188.8 80.85C189.26 85.03 189.25 88.77 188.77 93.6C188.39 97.37 187.71 101.98 186.42 107.29L189.27 109.46C190.84 110.66 193.04 112.9 194.16 114.44C195.28 115.98 196.79 118.92 197.52 120.97C198.25 123.02 199.13 126.94 199.48 129.68C199.82 132.41 199.91 136.89 199.68 139.63C199.44 142.36 198.83 146.14 198.33 148.02C197.83 149.91 196.53 153.11 195.43 155.15C194.33 157.19 191.61 160.69 189.38 162.93C186.76 165.55 183.86 167.71 181.25 168.98C179.02 170.07 175.36 171.26 173.13 171.62C170.89 171.98 167.94 172.28 166.56 172.28C164.15 172.29 163.98 172.43 161.88 176.16C160.65 178.33 157.35 182.36 154.38 185.33C151.45 188.24 147.52 191.53 145.63 192.64C143.73 193.75 139.94 195.63 137.19 196.81C134.44 198 129.38 199.66 125.94 200.52C122.5 201.37 117.3 202.41 114.38 202.83C111.45 203.25 104.98 203.59 100 203.59C95.02 203.59 88.55 203.25 85.63 202.83C82.7 202.41 77.5 201.37 74.06 200.52C70.63 199.66 65.56 198 62.81 196.81C60.06 195.63 56.27 193.75 54.38 192.64C52.48 191.53 48.55 188.24 45.63 185.33C42.65 182.36 39.35 178.33 38.13 176.16C36.02 172.43 35.85 172.29 33.44 172.28C32.06 172.28 29.11 171.98 26.88 171.62C24.64 171.26 20.98 170.07 18.75 168.98C16.14 167.71 13.24 165.55 10.63 162.93C8.39 160.69 5.67 157.19 4.57 155.15C3.47 153.11 2.17 149.91 1.67 148.02C1.17 146.14 0.56 142.36 0.32 139.63C0.09 136.89 0.18 132.41 0.52 129.68C0.87 126.94 1.75 123.02 2.48 120.97C3.21 118.92 4.72 115.98 5.84 114.44C6.96 112.9 9.16 110.66 13.58 107.29L12.75 103.87C12.29 101.98 11.61 97.37 11.23 93.6C10.75 88.77 10.74 85.03 11.2 80.85C11.55 77.6 12.38 72.85 13.04 70.28C13.7 67.71 15.27 62.96 16.53 59.71C17.79 56.46 19.96 51.7 21.35 49.13C22.74 46.57 25.21 42.79 26.85 40.74C28.48 38.69 31.9 35.21 34.44 33.02C36.98 30.84 41.17 27.64 43.75 25.92C46.33 24.2 50.41 21.86 52.81 20.72C55.22 19.58 60.7 17.49 65 16.07C71.65 13.87 72.63 13.39 71.59 12.81C70.91 12.43 69.58 11.36 68.62 10.42C67.48 9.3 66.88 8.06 66.88 6.84C66.88 5.78 67.48 4.31 68.28 3.43C69.08 2.54 71.16 1.48 73.13 0.94C75.58 0.26 78.44 0.07 83.13 0.27ZM137.94 80.14C135.68 83.44 131.63 88.49 128.94 91.36C126.26 94.23 121.81 98.25 119.06 100.3C116.31 102.35 111.6 105.25 108.59 106.74C105.59 108.24 101.93 109.63 100.47 109.83C98.35 110.13 97.46 109.94 96.09 108.9C94.89 107.99 94.38 107.04 94.38 105.73C94.38 104.71 95.15 102.55 96.09 100.94L97.81 98.02C88.61 104.36 84.39 106.98 82.5 107.92C80.61 108.87 76.67 110.45 73.75 111.43C70.83 112.41 67.1 113.2 65.47 113.2C63.26 113.2 62.11 112.84 60.99 111.8C60.16 111.03 59.31 109.77 59.11 109C58.87 108.05 59.58 106.03 61.3 102.78C63.15 99.28 63.51 98.21 62.62 98.89C61.94 99.4 58.05 102.34 53.97 105.42C49.9 108.5 44.41 112.42 41.77 114.13L36.97 117.24C35.44 124.95 34.71 128.24 34.37 129.52C34.03 130.8 33.19 132.41 32.5 133.1C31.73 133.87 30.42 134.34 29.06 134.34C27.4 134.34 26.58 133.93 25.62 132.63C24.93 131.69 24.23 129.94 24.07 128.74C23.91 127.55 23.49 124.26 23.14 121.44C22.51 116.41 22.46 116.3 20.78 116.29C19.84 116.28 18.08 116.91 16.88 117.69C15.48 118.59 14.01 120.46 12.81 122.84C10.98 126.48 10.94 126.77 10.94 135.9C10.94 144.75 11.02 145.4 12.61 148.65C13.54 150.53 15.51 153.43 16.99 155.09C18.61 156.9 21.18 158.83 23.44 159.93C26.48 161.4 28.38 161.83 33.49 162.19C37.61 162.49 40.18 162.96 40.91 163.57C41.53 164.09 43.76 167 45.86 170.05C47.97 173.1 51.53 177.3 53.79 179.38C56.35 181.74 59.86 184.15 63.16 185.78C66.06 187.22 70.83 189.08 73.75 189.92C76.67 190.76 82.02 191.89 85.63 192.43C89.23 192.97 95.7 193.42 100 193.42C104.3 193.42 110.77 192.97 114.38 192.43C117.98 191.89 123.33 190.76 126.25 189.92C129.17 189.08 133.94 187.22 136.84 185.78C140.14 184.15 143.65 181.74 146.21 179.38C148.47 177.3 152.03 173.1 154.14 170.05C156.24 167 158.47 164.09 159.09 163.57C159.82 162.96 162.39 162.49 166.51 162.19C171.62 161.83 173.52 161.4 176.56 159.93C178.82 158.83 181.39 156.9 183.01 155.09C184.49 153.43 186.46 150.53 187.39 148.65C188.98 145.4 189.06 144.75 189.06 135.9C189.06 126.77 189.02 126.48 187.19 122.84C185.99 120.46 184.52 118.59 183.13 117.69C181.92 116.91 180.16 116.28 179.22 116.29C177.54 116.3 177.49 116.41 176.86 121.44C176.51 124.26 176.09 127.55 175.93 128.74C175.77 129.94 175.07 131.69 174.38 132.63C173.42 133.93 172.6 134.34 170.94 134.34C169.58 134.34 168.27 133.87 167.5 133.1C166.81 132.41 165.97 130.8 165.62 129.52C165.28 128.24 164.25 123.41 163.33 118.79C161.75 110.83 161.51 110.2 158.77 106.66C157.18 104.61 154.5 100.41 152.81 97.34C151.12 94.26 148.24 88.24 146.41 83.96C144.58 79.69 142.85 75.73 142.57 75.17C142.17 74.36 141.17 75.44 137.94 80.14ZM135 100.37C136.9 100.48 139.97 101.26 141.88 102.11C143.77 102.95 146.5 104.74 147.95 106.09C149.63 107.65 150.6 109.09 150.63 110.09C150.65 110.94 150.1 112.41 149.4 113.35C148.45 114.62 147.6 115.06 146.09 115.04C144.77 115.03 142.75 114.13 136.56 109.96L130.47 110.33C124.7 110.69 124.31 110.63 123.11 109.31C122.42 108.54 121.86 107.28 121.86 106.51C121.87 105.74 122.51 104.39 123.28 103.51C124.16 102.5 125.97 101.58 128.13 101.03C130.02 100.56 133.11 100.26 135 100.37ZM67.03 121.93C67.63 121.91 69.29 122.39 70.72 122.99C72.15 123.59 73.82 124.78 74.43 125.63C75.05 126.49 76 128.59 76.55 130.3C77.1 132.01 77.72 136.63 77.92 140.56C78.14 144.74 77.99 149.91 77.57 153C77.17 155.91 76.36 159.25 75.77 160.42C75.17 161.6 73.98 163.08 73.13 163.71C72.27 164.34 70.44 165.1 69.06 165.39C67.69 165.69 65.58 165.69 64.38 165.41C63.07 165.09 61.25 163.87 59.84 162.36C58.41 160.82 57.13 158.57 56.54 156.58C55.89 154.36 55.58 150.71 55.6 145.23C55.61 140.78 55.94 135.46 56.34 133.41C56.73 131.36 57.55 128.7 58.14 127.5C58.73 126.3 59.73 124.9 60.36 124.39C60.99 123.88 62.5 123.12 63.72 122.71C64.94 122.29 66.43 121.94 67.03 121.93ZM134.06 122.23C135.44 122.43 137.39 123.07 138.4 123.65C139.4 124.23 140.8 125.68 141.49 126.88C142.19 128.08 143.11 130.73 143.55 132.79C143.98 134.84 144.36 140.3 144.38 144.91C144.41 150.75 144.13 154.31 143.46 156.58C142.87 158.57 141.59 160.82 140.16 162.36C138.55 164.09 137.03 165.05 135.31 165.41C133.94 165.69 131.83 165.69 130.63 165.39C129.42 165.1 127.73 164.34 126.88 163.71C126.02 163.08 124.83 161.6 124.23 160.42C123.64 159.25 122.83 155.91 122.43 153C122.01 149.91 121.86 144.74 122.08 140.56C122.28 136.63 122.84 132.15 123.32 130.61C123.79 129.07 124.72 126.99 125.37 125.99C126.03 124.99 127.69 123.66 129.06 123.02C130.81 122.22 132.32 121.98 134.06 122.23ZM86.82 162.32C87.71 162.31 89.56 163.12 90.94 164.11C92.31 165.1 94.84 166.54 99.69 168.7L103.13 167.31C105.02 166.54 107.69 165.1 109.06 164.11C110.44 163.12 112.27 162.32 113.13 162.33C113.98 162.35 115.33 162.98 116.11 163.74C116.92 164.53 117.53 165.86 117.52 166.84C117.51 167.82 116.74 169.41 115.7 170.57C114.71 171.68 111.69 173.71 108.98 175.08C104.74 177.22 103.5 177.56 100 177.56C96.5 177.56 95.26 177.22 91.02 175.08C88.31 173.71 85.29 171.68 84.3 170.57C83.31 169.46 82.45 167.8 82.38 166.88C82.31 165.83 82.81 164.67 83.74 163.77C84.55 162.98 85.94 162.32 86.82 162.32Z" />
</svg>