<svg version="1.2" baseProfile="tiny-ps" xmlns="http://www.w3.org/2000/svg" viewBox="0 0 120 120" width="120" height="120">
	<title>taipei-metro-logo</title>
	<style>
		tspan { white-space:pre }
	</style>
	<path fill="#731e1e" d="M61.17 25.45C64.74 25.49 67.93 25.64 69.57 25.83C71.02 26 72.99 26.27 73.96 26.44C74.93 26.6 76.64 26.95 77.77 27.21C78.9 27.46 80.79 27.99 81.97 28.37C83.15 28.76 85.13 29.58 86.37 30.19C88.07 31.04 88.94 31.61 89.95 32.58C90.69 33.28 91.85 34.68 92.53 35.7C93.2 36.72 94.18 38.39 94.69 39.41C95.21 40.43 96.08 42.37 97.65 46.15L103 46.25C107.53 46.33 108.41 46.4 108.83 46.67C109.1 46.85 109.47 47.31 109.66 47.7C109.85 48.08 110 48.58 110 48.79C110 49 109.64 50.87 109.21 52.94C108.78 55.01 108.29 56.9 108.14 57.14C107.98 57.38 107.57 57.76 107.22 57.97C106.7 58.29 106.24 58.36 102.97 58.36L103.88 59.58C104.38 60.25 105.12 61.51 105.53 62.37C105.94 63.22 106.46 64.63 106.7 65.49C107.05 66.75 107.13 67.6 107.14 69.89C107.15 72.26 107.08 72.99 106.7 74.38C106.45 75.29 106.01 76.57 105.72 77.21C105.43 77.85 104.85 78.91 104.42 79.55C104 80.19 103.23 81.18 101.8 82.78L101.79 87.9C101.79 92.43 101.75 93.12 101.43 93.81C101.24 94.24 100.8 94.84 100.46 95.13C100.12 95.43 99.51 95.76 99.11 95.88C98.64 96.01 96.43 96.06 87.6 95.96L86.94 95.46C86.57 95.18 86.05 94.66 85.78 94.29C85.33 93.67 85.28 93.4 85.1 88.34L34.9 88.34L34.8 90.98C34.71 93.4 34.66 93.67 34.21 94.29C33.94 94.66 33.42 95.18 32.39 95.96L27 96.02C23.56 96.06 21.35 96.01 20.88 95.88C20.48 95.76 19.87 95.43 19.53 95.13C19.19 94.84 18.75 94.24 18.56 93.81C18.24 93.12 18.2 92.42 18.2 82.48L17.5 81.8C17.11 81.42 16.41 80.59 15.95 79.94C15.48 79.3 14.79 78.11 14.4 77.31C14.02 76.5 13.52 75.14 13.28 74.28C12.94 73.03 12.86 72.16 12.85 69.89C12.84 67.8 12.93 66.69 13.19 65.69C13.37 64.93 13.81 63.66 14.14 62.85C14.48 62.05 15.22 60.71 16.83 58.36L15.12 58.36C13.75 58.36 13.28 58.28 12.77 57.97C12.43 57.76 12.01 57.38 11.86 57.14C11.7 56.9 11.22 54.99 10.78 52.89C10.34 50.8 9.99 48.93 9.99 48.74C9.99 48.55 10.14 48.08 10.33 47.7C10.52 47.31 10.89 46.85 11.16 46.67C11.58 46.4 12.47 46.33 22.33 46.15L23.36 43.71C23.92 42.37 24.81 40.43 25.32 39.41C25.83 38.39 26.74 36.81 27.33 35.9C27.92 34.98 28.95 33.68 29.6 33C30.26 32.32 31.41 31.4 32.16 30.96C32.91 30.52 34.32 29.82 35.29 29.4C36.25 28.98 38.1 28.34 39.39 27.96C40.68 27.59 42.79 27.07 44.08 26.81C45.37 26.56 47.52 26.2 48.86 26.03C50.2 25.86 52.23 25.64 53.35 25.55C54.48 25.46 58 25.41 61.17 25.45ZM55.01 33.08C54.48 33.12 53.07 33.25 51.89 33.37C50.71 33.48 48.69 33.75 47.4 33.96C46.11 34.17 44.22 34.56 43.2 34.82C42.18 35.07 40.68 35.52 39.88 35.81C39.07 36.1 37.82 36.63 37.09 37C36.37 37.36 35.46 37.94 35.07 38.29C34.68 38.64 33.98 39.54 33.52 40.29C33.05 41.05 32.26 42.54 31.76 43.61C31.26 44.69 30.46 46.56 29.99 47.76C29.52 48.97 29.13 50.05 29.13 50.16C29.13 50.29 39.55 50.35 60 50.35C80.44 50.35 90.86 50.29 90.86 50.16C90.86 50.05 90.47 48.97 90 47.76C89.53 46.56 88.73 44.69 88.23 43.61C87.73 42.54 86.94 41.05 86.47 40.29C86.01 39.54 85.31 38.64 84.92 38.29C84.53 37.94 83.62 37.36 82.9 37C82.17 36.63 80.92 36.1 80.11 35.81C79.31 35.52 77.81 35.07 76.79 34.82C75.77 34.56 74.15 34.21 73.18 34.05C72.21 33.88 70.32 33.61 68.98 33.44C67.55 33.27 64.37 33.12 61.27 33.08C58.36 33.04 55.55 33.04 55.01 33.08ZM30.01 63.34C29.37 63.48 28.44 63.82 27.96 64.1C27.48 64.37 26.72 64.97 26.27 65.43C25.83 65.89 25.24 66.71 24.97 67.25C24.69 67.79 24.38 68.75 24.26 69.4C24.12 70.2 24.12 70.94 24.25 71.74C24.36 72.39 24.67 73.37 24.94 73.94C25.2 74.5 25.86 75.4 26.4 75.94C26.94 76.48 27.88 77.15 28.5 77.44C29.12 77.72 30.06 78.01 30.6 78.09C31.14 78.16 32.06 78.16 32.65 78.09C33.24 78.01 34.23 77.72 34.85 77.44C35.46 77.15 36.41 76.48 36.95 75.94C37.48 75.4 38.16 74.46 38.44 73.84C38.73 73.22 39.02 72.23 39.09 71.64C39.17 71.05 39.17 70.13 39.09 69.59C39.02 69.06 38.74 68.13 38.48 67.54C38.22 66.95 37.64 66.07 37.21 65.59C36.77 65.1 35.9 64.43 35.26 64.09C34.63 63.75 33.59 63.38 32.94 63.26C32.3 63.14 31.64 63.05 31.48 63.06C31.32 63.07 30.66 63.2 30.01 63.34ZM87.05 63.26C86.51 63.35 85.63 63.64 85.1 63.9C84.56 64.17 83.69 64.8 83.16 65.33C82.63 65.85 81.95 66.8 81.64 67.44C81.31 68.15 81.04 69.12 80.97 69.89C80.89 70.67 80.94 71.56 81.09 72.23C81.23 72.82 81.52 73.66 81.74 74.09C81.95 74.51 82.54 75.29 83.03 75.82C83.52 76.34 84.28 76.95 84.7 77.18C85.13 77.4 85.84 77.7 86.27 77.84C86.7 77.98 87.62 78.1 88.32 78.11C89.02 78.12 89.98 78.02 90.47 77.89C90.95 77.76 91.7 77.45 92.13 77.21C92.56 76.96 93.3 76.37 93.77 75.91C94.24 75.44 94.9 74.49 95.22 73.79C95.67 72.84 95.84 72.15 95.9 71.06C95.97 69.99 95.9 69.3 95.64 68.52C95.45 67.93 95.01 67 94.66 66.47C94.31 65.93 93.59 65.16 93.07 64.75C92.55 64.34 91.69 63.85 91.15 63.65C90.61 63.46 89.69 63.25 89.1 63.19C88.51 63.13 87.59 63.16 87.05 63.26Z" />
</svg>