<svg version="1.2" baseProfile="tiny-ps" xmlns="http://www.w3.org/2000/svg" viewBox="0 0 120 120" width="120" height="120">
	<title>圖層 1</title>
	<style>
		tspan { white-space:pre }
	</style>
	<path fill="#731e1e" d="M71.31 35L75.12 40.26L63.79 40.26C54.63 40.26 52.34 40.31 51.82 40.53C51.48 40.67 51 41 50.77 41.26C50.54 41.51 48.76 44.03 43.28 51.98L46.26 51.98C49.05 51.99 49.26 51.96 49.63 51.57C49.84 51.34 51.25 49.38 52.77 47.22C54.48 44.76 55.77 43.12 56.18 42.85C56.65 42.54 57.27 42.38 58.22 42.3C58.97 42.24 64.2 42.22 80.09 42.31L85.63 50.32L71.53 50.42C57.48 50.51 57.44 50.51 56.85 50.93C56.53 51.17 56.04 51.61 55.75 51.91C55.47 52.22 53.33 55.19 51.01 58.52C48.68 61.85 46.41 64.94 45.96 65.38C45.4 65.92 44.79 66.29 44.06 66.5C43.1 66.79 41.21 66.82 25.95 66.82C10.89 66.82 8.92 66.79 9 66.53C9.06 66.37 11.32 62.99 18.96 51.81L24.63 51.75C29.25 51.7 30.37 51.63 30.74 51.39C30.99 51.23 32.83 48.73 34.82 45.83C36.82 42.92 39.1 39.67 39.88 38.6C40.65 37.52 41.58 36.36 41.94 36.01C42.3 35.66 42.86 35.3 43.18 35.2C43.51 35.1 49.77 35.01 71.31 35ZM92.76 52.79C107.83 52.78 109.79 52.81 109.71 53.07C109.65 53.23 107.39 56.61 99.75 67.79L94.57 67.8C91.72 67.8 89.09 67.87 88.72 67.96C88.35 68.04 87.82 68.33 87.55 68.61C87.27 68.89 85.43 71.48 83.45 74.37C81.47 77.26 79.37 80.29 78.79 81.09C78.2 81.9 77.36 82.93 76.92 83.39C76.47 83.86 75.81 84.31 75.43 84.42C75.02 84.53 69.28 84.6 47.4 84.59L43.59 79.34L54.97 79.34C64.72 79.34 66.45 79.3 67.08 79.05C67.52 78.87 67.99 78.46 68.27 78.02C68.53 77.61 70.24 75.11 75.43 67.62L72.45 67.61C69.65 67.6 69.45 67.63 69.08 68.02C68.87 68.26 67.46 70.21 65.96 72.38C63.47 75.96 63.14 76.35 61.27 77.29L38.61 77.38L33.07 69.28L47.17 69.18C61.24 69.08 61.27 69.08 61.86 68.66C62.18 68.43 62.71 67.94 63.05 67.59C63.38 67.23 65.49 64.3 67.73 61.07C69.98 57.85 72.12 54.87 72.5 54.46C72.88 54.04 73.43 53.58 73.72 53.43C74.02 53.29 74.59 53.09 74.99 52.99C75.39 52.89 83.39 52.8 92.76 52.79Z" />
</svg>